<mxfile host="65bd71144e">
    <diagram name="Page-1" id="Ei5oFpeLK8a0ol1k6TtE">
        <mxGraphModel dx="2728" dy="804" grid="1" gridSize="10" guides="1" tooltips="1" connect="1" arrows="1" fold="1" page="1" pageScale="1" pageWidth="827" pageHeight="1169" math="0" shadow="0">
            <root>
                <mxCell id="0"/>
                <mxCell id="1" parent="0"/>
                <mxCell id="DEdySj9RBdpoS25cQ73x-8" value="" style="rounded=0;whiteSpace=wrap;html=1;fillColor=#ffe6cc;strokeColor=#d79b00;opacity=40;strokeWidth=2;" parent="1" vertex="1">
                    <mxGeometry x="-1320" y="230" width="1160" height="120" as="geometry"/>
                </mxCell>
                <mxCell id="DEdySj9RBdpoS25cQ73x-11" value="" style="rounded=0;whiteSpace=wrap;html=1;fillColor=#f8cecc;strokeColor=#b85450;opacity=40;direction=east;" parent="1" vertex="1">
                    <mxGeometry x="-1320" y="450" width="1160" height="340" as="geometry"/>
                </mxCell>
                <mxCell id="rrb0ZDgDaH0qyxRiOYhU-6" style="edgeStyle=orthogonalEdgeStyle;rounded=0;orthogonalLoop=1;jettySize=auto;html=1;exitX=0.5;exitY=1;exitDx=0;exitDy=0;entryX=0.25;entryY=0;entryDx=0;entryDy=0;" parent="1" source="DEdySj9RBdpoS25cQ73x-5" target="DEdySj9RBdpoS25cQ73x-12" edge="1">
                    <mxGeometry relative="1" as="geometry">
                        <Array as="points">
                            <mxPoint x="-1205" y="410"/>
                            <mxPoint x="-1180" y="410"/>
                        </Array>
                    </mxGeometry>
                </mxCell>
                <mxCell id="ugIMF8ThDM7Jmgfe9TkD-32" value="Dessine" style="edgeLabel;html=1;align=center;verticalAlign=middle;resizable=0;points=[];" parent="rrb0ZDgDaH0qyxRiOYhU-6" connectable="0" vertex="1">
                    <mxGeometry x="-0.5882" y="-4" relative="1" as="geometry">
                        <mxPoint as="offset"/>
                    </mxGeometry>
                </mxCell>
                <mxCell id="DEdySj9RBdpoS25cQ73x-5" value="Smartphone" style="html=1;whiteSpace=wrap;fillColor=#ffcd28;gradientColor=#ffa500;strokeColor=#d79b00;" parent="1" vertex="1">
                    <mxGeometry x="-1260" y="265" width="110" height="50" as="geometry"/>
                </mxCell>
                <mxCell id="OoqK43-sp_e9B4Sx0cOa-38" style="edgeStyle=orthogonalEdgeStyle;rounded=0;orthogonalLoop=1;jettySize=auto;html=1;exitX=0.25;exitY=1;exitDx=0;exitDy=0;" parent="1" source="DEdySj9RBdpoS25cQ73x-6" target="DEdySj9RBdpoS25cQ73x-12" edge="1">
                    <mxGeometry relative="1" as="geometry">
                        <Array as="points">
                            <mxPoint x="-1010" y="315"/>
                            <mxPoint x="-1010" y="399"/>
                            <mxPoint x="-1090" y="399"/>
                        </Array>
                    </mxGeometry>
                </mxCell>
                <mxCell id="ugIMF8ThDM7Jmgfe9TkD-33" value="Dessine" style="edgeLabel;html=1;align=center;verticalAlign=middle;resizable=0;points=[];" parent="OoqK43-sp_e9B4Sx0cOa-38" connectable="0" vertex="1">
                    <mxGeometry x="-0.7" y="-2" relative="1" as="geometry">
                        <mxPoint as="offset"/>
                    </mxGeometry>
                </mxCell>
                <mxCell id="ugIMF8ThDM7Jmgfe9TkD-47" style="edgeStyle=orthogonalEdgeStyle;rounded=0;orthogonalLoop=1;jettySize=auto;html=1;exitX=0.5;exitY=1;exitDx=0;exitDy=0;entryX=0.25;entryY=0;entryDx=0;entryDy=0;" parent="1" target="DEdySj9RBdpoS25cQ73x-12" edge="1">
                    <mxGeometry relative="1" as="geometry">
                        <mxPoint x="-1000" y="315" as="sourcePoint"/>
                        <mxPoint x="-1045" y="570" as="targetPoint"/>
                        <Array as="points">
                            <mxPoint x="-1000" y="420"/>
                            <mxPoint x="-1240" y="420"/>
                        </Array>
                    </mxGeometry>
                </mxCell>
                <mxCell id="ugIMF8ThDM7Jmgfe9TkD-50" value="Envoie msg" style="edgeLabel;html=1;align=center;verticalAlign=middle;resizable=0;points=[];" parent="ugIMF8ThDM7Jmgfe9TkD-47" connectable="0" vertex="1">
                    <mxGeometry x="-0.3227" relative="1" as="geometry">
                        <mxPoint as="offset"/>
                    </mxGeometry>
                </mxCell>
                <mxCell id="ugIMF8ThDM7Jmgfe9TkD-60" style="edgeStyle=orthogonalEdgeStyle;rounded=0;orthogonalLoop=1;jettySize=auto;html=1;exitX=0.5;exitY=1;exitDx=0;exitDy=0;entryX=1;entryY=0;entryDx=0;entryDy=0;" parent="1" source="DEdySj9RBdpoS25cQ73x-6" target="DEdySj9RBdpoS25cQ73x-12" edge="1">
                    <mxGeometry relative="1" as="geometry"/>
                </mxCell>
                <mxCell id="ugIMF8ThDM7Jmgfe9TkD-61" value="Actualise terrain" style="edgeLabel;html=1;align=center;verticalAlign=middle;resizable=0;points=[];" parent="ugIMF8ThDM7Jmgfe9TkD-60" connectable="0" vertex="1">
                    <mxGeometry x="-0.1284" y="3" relative="1" as="geometry">
                        <mxPoint as="offset"/>
                    </mxGeometry>
                </mxCell>
                <mxCell id="DEdySj9RBdpoS25cQ73x-6" value="&lt;div&gt;Laptop&lt;/div&gt;" style="html=1;whiteSpace=wrap;fillColor=#ffcd28;gradientColor=#ffa500;strokeColor=#d79b00;" parent="1" vertex="1">
                    <mxGeometry x="-1040" y="265" width="110" height="50" as="geometry"/>
                </mxCell>
                <mxCell id="DEdySj9RBdpoS25cQ73x-7" value="&lt;div&gt;Commun Screen&lt;/div&gt;" style="html=1;whiteSpace=wrap;fillColor=#ffcd28;gradientColor=#ffa500;strokeColor=#d79b00;" parent="1" vertex="1">
                    <mxGeometry x="-790" y="265" width="110" height="50" as="geometry"/>
                </mxCell>
                <mxCell id="ugIMF8ThDM7Jmgfe9TkD-48" style="edgeStyle=orthogonalEdgeStyle;rounded=0;orthogonalLoop=1;jettySize=auto;html=1;exitX=0.5;exitY=0;exitDx=0;exitDy=0;entryX=0.75;entryY=1;entryDx=0;entryDy=0;" parent="1" source="DEdySj9RBdpoS25cQ73x-12" target="DEdySj9RBdpoS25cQ73x-5" edge="1">
                    <mxGeometry relative="1" as="geometry">
                        <Array as="points">
                            <mxPoint x="-1130" y="400"/>
                            <mxPoint x="-1177" y="400"/>
                        </Array>
                    </mxGeometry>
                </mxCell>
                <mxCell id="ugIMF8ThDM7Jmgfe9TkD-49" value="Reçoit msg" style="edgeLabel;html=1;align=center;verticalAlign=middle;resizable=0;points=[];" parent="ugIMF8ThDM7Jmgfe9TkD-48" connectable="0" vertex="1">
                    <mxGeometry x="0.1886" y="-1" relative="1" as="geometry">
                        <mxPoint as="offset"/>
                    </mxGeometry>
                </mxCell>
                <mxCell id="ugIMF8ThDM7Jmgfe9TkD-55" style="edgeStyle=orthogonalEdgeStyle;rounded=0;orthogonalLoop=1;jettySize=auto;html=1;exitX=0;exitY=0;exitDx=0;exitDy=0;entryX=0.25;entryY=1;entryDx=0;entryDy=0;strokeColor=default;" parent="1" source="DEdySj9RBdpoS25cQ73x-12" target="DEdySj9RBdpoS25cQ73x-5" edge="1">
                    <mxGeometry relative="1" as="geometry"/>
                </mxCell>
                <mxCell id="ugIMF8ThDM7Jmgfe9TkD-56" value="&lt;div&gt;Actualise Terrain&lt;/div&gt;" style="edgeLabel;html=1;align=center;verticalAlign=middle;resizable=0;points=[];" parent="ugIMF8ThDM7Jmgfe9TkD-55" connectable="0" vertex="1">
                    <mxGeometry x="0.1972" y="1" relative="1" as="geometry">
                        <mxPoint as="offset"/>
                    </mxGeometry>
                </mxCell>
                <mxCell id="12" style="edgeStyle=none;html=1;exitX=1;exitY=0.25;exitDx=0;exitDy=0;" parent="1" source="DEdySj9RBdpoS25cQ73x-12" target="8" edge="1">
                    <mxGeometry relative="1" as="geometry"/>
                </mxCell>
                <mxCell id="13" style="edgeStyle=none;html=1;exitX=1;exitY=0.5;exitDx=0;exitDy=0;entryX=0;entryY=0.75;entryDx=0;entryDy=0;" parent="1" source="DEdySj9RBdpoS25cQ73x-12" target="7" edge="1">
                    <mxGeometry relative="1" as="geometry"/>
                </mxCell>
                <mxCell id="14" style="edgeStyle=none;html=1;exitX=1;exitY=0.75;exitDx=0;exitDy=0;entryX=0;entryY=0.5;entryDx=0;entryDy=0;" parent="1" source="DEdySj9RBdpoS25cQ73x-12" target="10" edge="1">
                    <mxGeometry relative="1" as="geometry"/>
                </mxCell>
                <mxCell id="15" style="edgeStyle=none;html=1;exitX=1;exitY=1;exitDx=0;exitDy=0;" parent="1" source="DEdySj9RBdpoS25cQ73x-12" edge="1">
                    <mxGeometry relative="1" as="geometry">
                        <mxPoint x="-900" y="750" as="targetPoint"/>
                    </mxGeometry>
                </mxCell>
                <mxCell id="DEdySj9RBdpoS25cQ73x-12" value="APK Angular" style="html=1;whiteSpace=wrap;fillColor=#e6d0de;gradientColor=#d5739d;strokeColor=#996185;" parent="1" vertex="1">
                    <mxGeometry x="-1290" y="570" width="200" height="100" as="geometry"/>
                </mxCell>
                <mxCell id="C4ztlMbri81NeWR5jCJK-2" value="&lt;div&gt;Allume / éteint&lt;/div&gt;" style="edgeStyle=orthogonalEdgeStyle;rounded=0;orthogonalLoop=1;jettySize=auto;html=1;exitX=0.25;exitY=0;exitDx=0;exitDy=0;" parent="1" source="ugIMF8ThDM7Jmgfe9TkD-63" target="OoqK43-sp_e9B4Sx0cOa-37" edge="1">
                    <mxGeometry relative="1" as="geometry">
                        <Array as="points">
                            <mxPoint x="-380" y="560"/>
                            <mxPoint x="-380" y="392"/>
                            <mxPoint x="-565" y="392"/>
                        </Array>
                        <mxPoint x="-537.5" y="470" as="sourcePoint"/>
                    </mxGeometry>
                </mxCell>
                <mxCell id="DEdySj9RBdpoS25cQ73x-16" value="" style="rounded=0;whiteSpace=wrap;html=1;fillColor=#d5e8d4;strokeColor=#82b366;opacity=40;" parent="1" vertex="1">
                    <mxGeometry x="-995" y="820" width="290" height="140" as="geometry"/>
                </mxCell>
                <mxCell id="DEdySj9RBdpoS25cQ73x-17" value="Base de données Cloud" style="html=1;whiteSpace=wrap;fillColor=#d5e8d4;gradientColor=#97d077;strokeColor=#82b366;" parent="1" vertex="1">
                    <mxGeometry x="-945" y="840" width="190" height="100" as="geometry"/>
                </mxCell>
                <mxCell id="OoqK43-sp_e9B4Sx0cOa-37" value="&lt;div&gt;Lampe&lt;/div&gt;" style="html=1;whiteSpace=wrap;fillColor=#ffcd28;gradientColor=#ffa500;strokeColor=#d79b00;" parent="1" vertex="1">
                    <mxGeometry x="-620" y="265" width="110" height="50" as="geometry"/>
                </mxCell>
                <mxCell id="ugIMF8ThDM7Jmgfe9TkD-2" style="edgeStyle=orthogonalEdgeStyle;rounded=0;orthogonalLoop=1;jettySize=auto;html=1;exitX=0.5;exitY=0;exitDx=0;exitDy=0;" parent="1" edge="1">
                    <mxGeometry relative="1" as="geometry">
                        <mxPoint x="-565" y="520" as="targetPoint"/>
                    </mxGeometry>
                </mxCell>
                <mxCell id="ugIMF8ThDM7Jmgfe9TkD-12" value="&lt;div&gt;light/:value&lt;/div&gt;" style="edgeLabel;html=1;align=center;verticalAlign=middle;resizable=0;points=[];" parent="ugIMF8ThDM7Jmgfe9TkD-2" connectable="0" vertex="1">
                    <mxGeometry x="-0.1259" y="2" relative="1" as="geometry">
                        <mxPoint x="1" as="offset"/>
                    </mxGeometry>
                </mxCell>
                <mxCell id="ugIMF8ThDM7Jmgfe9TkD-16" style="edgeStyle=orthogonalEdgeStyle;rounded=0;orthogonalLoop=1;jettySize=auto;html=1;exitX=0.25;exitY=0;exitDx=0;exitDy=0;" parent="1" edge="1">
                    <mxGeometry relative="1" as="geometry">
                        <mxPoint x="-735" y="520" as="targetPoint"/>
                    </mxGeometry>
                </mxCell>
                <mxCell id="ugIMF8ThDM7Jmgfe9TkD-17" value="&lt;div&gt;public/:value&lt;/div&gt;" style="edgeLabel;html=1;align=center;verticalAlign=middle;resizable=0;points=[];" parent="ugIMF8ThDM7Jmgfe9TkD-16" connectable="0" vertex="1">
                    <mxGeometry x="0.3107" y="1" relative="1" as="geometry">
                        <mxPoint as="offset"/>
                    </mxGeometry>
                </mxCell>
                <mxCell id="ugIMF8ThDM7Jmgfe9TkD-22" style="edgeStyle=orthogonalEdgeStyle;rounded=0;orthogonalLoop=1;jettySize=auto;html=1;exitX=0.5;exitY=0;exitDx=0;exitDy=0;entryX=0.5;entryY=1;entryDx=0;entryDy=0;" parent="1" source="ugIMF8ThDM7Jmgfe9TkD-63" target="ugIMF8ThDM7Jmgfe9TkD-21" edge="1">
                    <mxGeometry relative="1" as="geometry">
                        <mxPoint x="-405" y="470" as="sourcePoint"/>
                        <Array as="points">
                            <mxPoint x="-320" y="370"/>
                            <mxPoint x="-405" y="370"/>
                        </Array>
                    </mxGeometry>
                </mxCell>
                <mxCell id="ugIMF8ThDM7Jmgfe9TkD-23" value="&lt;div&gt;Allume / éteint&lt;/div&gt;" style="edgeLabel;html=1;align=center;verticalAlign=middle;resizable=0;points=[];" parent="ugIMF8ThDM7Jmgfe9TkD-22" connectable="0" vertex="1">
                    <mxGeometry x="-0.0714" y="-1" relative="1" as="geometry">
                        <mxPoint as="offset"/>
                    </mxGeometry>
                </mxCell>
                <mxCell id="ugIMF8ThDM7Jmgfe9TkD-21" value="Enceinte" style="html=1;whiteSpace=wrap;fillColor=#ffcd28;gradientColor=#ffa500;strokeColor=#d79b00;" parent="1" vertex="1">
                    <mxGeometry x="-460" y="265" width="110" height="50" as="geometry"/>
                </mxCell>
                <mxCell id="ugIMF8ThDM7Jmgfe9TkD-25" value="Store" style="html=1;whiteSpace=wrap;fillColor=#ffcd28;gradientColor=#ffa500;strokeColor=#d79b00;" parent="1" vertex="1">
                    <mxGeometry x="-300" y="265" width="110" height="50" as="geometry"/>
                </mxCell>
                <mxCell id="ugIMF8ThDM7Jmgfe9TkD-30" style="edgeStyle=orthogonalEdgeStyle;rounded=0;orthogonalLoop=1;jettySize=auto;html=1;exitX=0.75;exitY=0;exitDx=0;exitDy=0;entryX=0.5;entryY=1;entryDx=0;entryDy=0;" parent="1" source="ugIMF8ThDM7Jmgfe9TkD-63" target="ugIMF8ThDM7Jmgfe9TkD-25" edge="1">
                    <mxGeometry relative="1" as="geometry">
                        <mxPoint x="-245" y="470" as="sourcePoint"/>
                    </mxGeometry>
                </mxCell>
                <mxCell id="ugIMF8ThDM7Jmgfe9TkD-31" value="Ouvre/ Ferme" style="edgeLabel;html=1;align=center;verticalAlign=middle;resizable=0;points=[];" parent="ugIMF8ThDM7Jmgfe9TkD-30" connectable="0" vertex="1">
                    <mxGeometry x="-0.1035" relative="1" as="geometry">
                        <mxPoint as="offset"/>
                    </mxGeometry>
                </mxCell>
                <mxCell id="ugIMF8ThDM7Jmgfe9TkD-44" style="edgeStyle=orthogonalEdgeStyle;rounded=0;orthogonalLoop=1;jettySize=auto;html=1;exitX=0.5;exitY=1;exitDx=0;exitDy=0;" parent="1" source="DEdySj9RBdpoS25cQ73x-16" target="DEdySj9RBdpoS25cQ73x-16" edge="1">
                    <mxGeometry relative="1" as="geometry"/>
                </mxCell>
                <mxCell id="ugIMF8ThDM7Jmgfe9TkD-63" value="OpenHAB" style="html=1;whiteSpace=wrap;fillColor=#e6d0de;gradientColor=#d5739d;strokeColor=#996185;" parent="1" vertex="1">
                    <mxGeometry x="-420" y="560" width="200" height="100" as="geometry"/>
                </mxCell>
                <mxCell id="3" style="edgeStyle=none;html=1;exitX=1;exitY=0.5;exitDx=0;exitDy=0;entryX=0;entryY=0.75;entryDx=0;entryDy=0;" parent="1" source="2" target="ugIMF8ThDM7Jmgfe9TkD-63" edge="1">
                    <mxGeometry relative="1" as="geometry"/>
                </mxCell>
                <mxCell id="4" value="Rest API" style="edgeLabel;html=1;align=center;verticalAlign=middle;resizable=0;points=[];" parent="3" vertex="1" connectable="0">
                    <mxGeometry x="-0.4707" y="1" relative="1" as="geometry">
                        <mxPoint x="21" y="1" as="offset"/>
                    </mxGeometry>
                </mxCell>
                <mxCell id="2" value="&lt;div&gt;Server Node-RED&lt;/div&gt;" style="html=1;whiteSpace=wrap;fillColor=#e6d0de;gradientColor=#d5739d;strokeColor=#996185;" parent="1" vertex="1">
                    <mxGeometry x="-640" y="585" width="110" height="100" as="geometry"/>
                </mxCell>
                <mxCell id="17" style="edgeStyle=none;html=1;exitX=0;exitY=0.25;exitDx=0;exitDy=0;" parent="1" source="7" edge="1">
                    <mxGeometry relative="1" as="geometry">
                        <mxPoint x="-1090" y="620" as="targetPoint"/>
                    </mxGeometry>
                </mxCell>
                <mxCell id="24" value="synchroniser affichage" style="edgeStyle=none;html=1;exitX=1;exitY=0.5;exitDx=0;exitDy=0;entryX=0.5;entryY=1;entryDx=0;entryDy=0;" parent="1" source="7" target="DEdySj9RBdpoS25cQ73x-7" edge="1">
                    <mxGeometry relative="1" as="geometry"/>
                </mxCell>
                <mxCell id="7" value="Canvas" style="shape=hexagon;perimeter=hexagonPerimeter2;whiteSpace=wrap;html=1;fixedSize=1;shadow=0;sketch=0;gradientColor=default;gradientDirection=north;" parent="1" vertex="1">
                    <mxGeometry x="-910" y="540" width="120" height="80" as="geometry"/>
                </mxCell>
                <mxCell id="16" style="edgeStyle=none;html=1;exitX=0;exitY=0.25;exitDx=0;exitDy=0;" parent="1" source="8" edge="1">
                    <mxGeometry relative="1" as="geometry">
                        <mxPoint x="-1100" y="600" as="targetPoint"/>
                    </mxGeometry>
                </mxCell>
                <mxCell id="8" value="Tchat" style="shape=hexagon;perimeter=hexagonPerimeter2;whiteSpace=wrap;html=1;fixedSize=1;shadow=0;sketch=0;gradientColor=default;gradientDirection=north;" parent="1" vertex="1">
                    <mxGeometry x="-910" y="460" width="120" height="80" as="geometry"/>
                </mxCell>
                <mxCell id="21" style="edgeStyle=none;html=1;exitX=0;exitY=0.25;exitDx=0;exitDy=0;entryX=1;entryY=1;entryDx=0;entryDy=0;" parent="1" source="9" target="DEdySj9RBdpoS25cQ73x-12" edge="1">
                    <mxGeometry relative="1" as="geometry"/>
                </mxCell>
                <mxCell id="22" style="edgeStyle=none;html=1;exitX=0.5;exitY=1;exitDx=0;exitDy=0;entryX=0.5;entryY=0;entryDx=0;entryDy=0;" parent="1" source="9" target="DEdySj9RBdpoS25cQ73x-17" edge="1">
                    <mxGeometry relative="1" as="geometry"/>
                </mxCell>
                <mxCell id="9" value="Perso &amp;amp; Save" style="shape=hexagon;perimeter=hexagonPerimeter2;whiteSpace=wrap;html=1;fixedSize=1;shadow=0;sketch=0;gradientColor=default;gradientDirection=north;" parent="1" vertex="1">
                    <mxGeometry x="-910" y="700" width="120" height="80" as="geometry"/>
                </mxCell>
                <mxCell id="11" style="edgeStyle=none;html=1;exitX=1;exitY=0.5;exitDx=0;exitDy=0;entryX=0;entryY=0.5;entryDx=0;entryDy=0;" parent="1" source="10" target="2" edge="1">
                    <mxGeometry relative="1" as="geometry"/>
                </mxCell>
                <mxCell id="10" value="IOT interact" style="shape=hexagon;perimeter=hexagonPerimeter2;whiteSpace=wrap;html=1;fixedSize=1;shadow=0;sketch=0;gradientColor=default;gradientDirection=north;" parent="1" vertex="1">
                    <mxGeometry x="-910" y="620" width="120" height="80" as="geometry"/>
                </mxCell>
            </root>
        </mxGraphModel>
    </diagram>
</mxfile>